<svg width="152" height="23" viewBox="0 0 152 23" fill="none" xmlns="http://www.w3.org/2000/svg">
<g clip-path="url(#clip0_1033_11875)">
<path d="M39.9689 20.7618C37.3317 20.7618 35.1301 20.3804 33.361 19.6206C31.5919 18.8579 30.2644 17.7317 29.3783 16.236C28.4923 14.7403 28.0508 12.902 28.0508 10.721C28.0508 7.52404 29.0711 5.05704 31.1146 3.31704C33.1581 1.57703 36.0996 0.707031 39.942 0.707031C42.1258 0.707031 44.053 1.0169 45.7176 1.63662C47.3853 2.25635 48.683 3.15615 49.6168 4.33005C50.5207 5.47119 50.9861 6.83578 51.0129 8.42681C51.0129 8.50726 50.9473 8.57579 50.8667 8.57579H46.893C46.8125 8.57579 46.7498 8.51322 46.7469 8.43277C46.72 7.55681 46.4336 6.8179 45.8877 6.21903C45.3119 5.59037 44.5094 5.11365 43.4742 4.79485C42.439 4.47605 41.2338 4.31516 39.8585 4.31516C38.352 4.31516 37.0513 4.55351 35.9594 5.03321C34.8675 5.5129 34.0233 6.19818 33.4326 7.09201C32.8389 7.98585 32.5436 9.07038 32.5436 10.3486V11.0547C32.5436 12.3537 32.8389 13.4532 33.4326 14.3559C34.0262 15.2587 34.8735 15.95 35.9743 16.4296C37.0751 16.9093 38.3699 17.1477 39.8585 17.1477C41.3084 17.1477 42.5554 16.9928 43.5995 16.6829C44.6437 16.373 45.4491 15.9023 46.013 15.2736C46.55 14.6777 46.8304 13.9478 46.8572 13.0897C46.8602 13.0092 46.9229 12.9467 47.0034 12.9467H50.8936C50.9741 12.9467 51.0428 13.0152 51.0398 13.0956C51.0129 14.6509 50.5505 15.9976 49.6585 17.1358C48.7367 18.3127 47.4449 19.2095 45.7892 19.8292C44.1305 20.4519 42.1914 20.7618 39.9689 20.7618Z" fill="#1C273B"/>
<path d="M59.7273 20.7616C58.8413 20.7616 58.0179 20.6901 57.2572 20.55C56.4935 20.41 55.8252 20.1746 55.2525 19.8439C54.6767 19.5161 54.2322 19.0692 53.91 18.5031C53.5908 17.94 53.4297 17.2339 53.4297 16.3877C53.4297 15.184 53.7578 14.2425 54.4171 13.5662C55.0764 12.8898 56.0042 12.4012 57.2005 12.1003C58.3968 11.7993 59.7989 11.6116 61.4099 11.5372C62.9791 11.4627 64.6855 11.4269 66.5322 11.4239C66.6127 11.4239 66.6783 11.3584 66.6783 11.2779V10.8012C66.6783 10.1606 66.5232 9.6601 66.2129 9.29064C65.9027 8.92417 65.4224 8.66198 64.772 8.50109C64.1217 8.3402 63.2804 8.26273 62.2452 8.26273C61.4159 8.26273 60.682 8.31338 60.0436 8.41766C59.4022 8.52194 58.904 8.68581 58.546 8.91225C58.188 9.13869 58.009 9.41876 58.009 9.75842V9.95209C58.009 10.0325 57.9434 10.0981 57.8628 10.0981H54.1725C54.1009 10.0981 54.0413 10.0444 54.0293 9.97592C54.0234 9.94315 54.0174 9.90739 54.0144 9.87462C54.0055 9.80013 53.9995 9.71373 53.9995 9.62137C53.9995 8.73647 54.3187 7.96776 54.9601 7.3093C55.6015 6.65084 56.5561 6.13838 57.827 5.7719C59.0979 5.40543 60.6641 5.2207 62.5286 5.2207C64.2977 5.2207 65.7804 5.38159 66.9767 5.7004C68.1729 6.0192 69.0799 6.54656 69.7034 7.27951C70.3239 8.01246 70.6341 9.00164 70.6341 10.2411V16.6171C70.6341 16.9747 70.7057 17.2488 70.8459 17.4365C70.9862 17.6242 71.2368 17.7195 71.5947 17.7195H72.8895C72.97 17.7195 73.0357 17.7851 73.0357 17.8655V20.1865C73.0357 20.2491 72.9969 20.3027 72.9402 20.3236C72.7403 20.3921 72.4241 20.4785 71.9915 20.5828C71.4844 20.705 70.9265 20.7675 70.3239 20.7675C69.4945 20.7675 68.8442 20.6632 68.3758 20.4577C67.9045 20.2521 67.5703 19.969 67.3734 19.6115C67.1944 19.2867 67.0632 18.9322 66.9856 18.5448C66.9707 18.4763 66.914 18.4257 66.8454 18.4257H66.7947C66.7589 18.4257 66.7261 18.4376 66.6992 18.4644C66.1801 18.9381 65.5626 19.3493 64.8466 19.6979C64.1127 20.0554 63.3162 20.3236 62.46 20.5023C61.5949 20.6722 60.688 20.7616 59.7273 20.7616ZM60.7148 17.7166C61.2995 17.7166 61.935 17.657 62.6211 17.5318C63.3073 17.4097 63.9636 17.222 64.5841 16.9687C65.2046 16.7155 65.7088 16.3967 66.0966 16.0093C66.4814 15.625 66.6753 15.187 66.6753 14.6984V14.0548C66.6753 13.9744 66.6097 13.9088 66.5292 13.9088C64.4856 13.9118 62.7941 13.9833 61.4517 14.1203C60.0764 14.2604 59.0561 14.5017 58.3879 14.8384C57.7196 15.1781 57.3855 15.6578 57.3855 16.2775C57.3855 16.6916 57.5496 17.0015 57.8807 17.2071C58.2089 17.4156 58.6295 17.5497 59.1367 17.6153C59.6408 17.6838 60.1689 17.7166 60.7148 17.7166Z" fill="#1C273B"/>
<path d="M75.0352 20.278V5.70245C75.0352 5.622 75.1008 5.55646 75.1813 5.55646H78.0691C78.1437 5.55646 78.2064 5.61307 78.2123 5.68457L78.4927 8.05026C78.5017 8.12475 78.5643 8.17838 78.6359 8.17838C78.6956 8.17838 78.7463 8.14263 78.7702 8.089C78.976 7.59739 79.2654 7.13855 79.6383 6.71249C80.0351 6.26259 80.5273 5.89909 81.121 5.62498C81.7147 5.35385 82.3859 5.2168 83.1407 5.2168C83.4808 5.2168 83.8149 5.24063 84.143 5.2883C84.4324 5.33002 84.6949 5.38961 84.9336 5.46707C84.9933 5.48793 85.032 5.54454 85.032 5.60711V8.79811C85.032 8.87855 84.9664 8.9441 84.8859 8.9441H83.084C82.3292 8.9441 81.6938 9.07222 81.1777 9.32547C80.6586 9.57873 80.2409 9.91839 79.9217 10.3415C79.6025 10.7646 79.3668 11.2353 79.2147 11.7508C79.0625 12.2692 78.988 12.7995 78.988 13.3448V20.2809C78.988 20.3614 78.9223 20.4269 78.8418 20.4269H75.1784C75.1008 20.424 75.0352 20.3584 75.0352 20.278Z" fill="#1C273B"/>
<path d="M94.7763 20.2784V5.02651C94.7763 4.94606 94.7107 4.88051 94.6301 4.88051H86.3337C86.2531 4.88051 86.1875 4.81497 86.1875 4.73452V1.18896C86.1875 1.10852 86.2531 1.04297 86.3337 1.04297H107.622C107.703 1.04297 107.768 1.10852 107.768 1.18896V4.73452C107.768 4.81497 107.703 4.88051 107.622 4.88051H99.3258C99.2452 4.88051 99.1796 4.94606 99.1796 5.02651V20.2784C99.1796 20.3588 99.114 20.4244 99.0334 20.4244H94.9195C94.8419 20.4244 94.7763 20.3588 94.7763 20.2784Z" fill="#1C273B"/>
<path d="M113.305 20.7616C112.419 20.7616 111.596 20.6901 110.835 20.55C110.072 20.41 109.403 20.1746 108.831 19.8439C108.255 19.5161 107.81 19.0692 107.488 18.5031C107.169 17.94 107.008 17.2339 107.008 16.3877C107.008 15.184 107.336 14.2425 107.995 13.5662C108.655 12.8898 109.582 12.4012 110.779 12.1003C111.975 11.7993 113.377 11.6116 114.988 11.5372C116.557 11.4627 118.264 11.4269 120.11 11.4239C120.191 11.4239 120.256 11.3584 120.256 11.2779V10.8012C120.256 10.1606 120.101 9.6601 119.791 9.29064C119.481 8.92417 119.001 8.66198 118.35 8.50109C117.7 8.3402 116.859 8.26273 115.823 8.26273C114.994 8.26273 114.26 8.31338 113.622 8.41766C112.98 8.52194 112.482 8.68581 112.124 8.91225C111.766 9.13869 111.587 9.41876 111.587 9.75842V9.95209C111.587 10.0325 111.521 10.0981 111.441 10.0981H107.751C107.679 10.0981 107.619 10.0444 107.607 9.97592C107.601 9.94315 107.596 9.90739 107.593 9.87462C107.584 9.80013 107.578 9.71373 107.578 9.62137C107.578 8.73647 107.897 7.96776 108.538 7.3093C109.18 6.65084 110.134 6.13838 111.405 5.7719C112.676 5.40543 114.245 5.2207 116.107 5.2207C117.876 5.2207 119.358 5.38159 120.555 5.7004C121.751 6.0192 122.658 6.54656 123.281 7.27951C123.902 8.01246 124.212 9.00164 124.212 10.2411V16.6171C124.212 16.9747 124.284 17.2488 124.424 17.4365C124.564 17.6242 124.815 17.7195 125.173 17.7195H126.468C126.548 17.7195 126.614 17.7851 126.614 17.8655V20.1865C126.614 20.2491 126.575 20.3027 126.518 20.3236C126.318 20.3921 126.002 20.4785 125.57 20.5828C125.062 20.705 124.505 20.7675 123.902 20.7675C123.073 20.7675 122.422 20.6632 121.954 20.4577C121.483 20.2521 121.148 19.969 120.952 19.6115C120.773 19.2867 120.641 18.9322 120.564 18.5448C120.549 18.4763 120.492 18.4257 120.424 18.4257H120.373C120.337 18.4257 120.304 18.4376 120.277 18.4644C119.758 18.9381 119.141 19.3493 118.425 19.6979C117.691 20.0554 116.894 20.3236 116.038 20.5023C115.173 20.6722 114.266 20.7616 113.305 20.7616ZM114.293 17.7166C114.878 17.7166 115.513 17.657 116.199 17.5318C116.885 17.4097 117.542 17.222 118.162 16.9687C118.783 16.7155 119.287 16.3967 119.675 16.0093C120.06 15.625 120.253 15.187 120.253 14.6984V14.0548C120.253 13.9744 120.188 13.9088 120.107 13.9088C118.064 13.9118 116.372 13.9833 115.03 14.1203C113.655 14.2604 112.634 14.5017 111.966 14.8384C111.298 15.1781 110.964 15.6578 110.964 16.2775C110.964 16.6916 111.128 17.0015 111.459 17.2071C111.787 17.4156 112.208 17.5497 112.715 17.6153C113.219 17.6838 113.747 17.7166 114.293 17.7166Z" fill="#1C273B"/>
<path d="M127.17 20.1808L133.918 12.7947C133.969 12.7381 133.969 12.6517 133.918 12.598L127.6 5.80486C127.513 5.7125 127.579 5.56055 127.707 5.56055H132.364C132.406 5.56055 132.444 5.57842 132.471 5.60822L136.734 10.1966C136.761 10.2264 136.8 10.2443 136.842 10.2443H136.91C136.952 10.2443 136.991 10.2264 137.018 10.1966L141.224 5.60822C141.251 5.57842 141.29 5.56055 141.332 5.56055H145.651C145.78 5.56055 145.845 5.7125 145.759 5.80486L139.437 12.6517C139.387 12.7083 139.387 12.7917 139.437 12.8483L146.156 20.1778C146.242 20.2701 146.173 20.4221 146.048 20.4221H141.445C141.403 20.4221 141.364 20.4042 141.338 20.3744L136.609 15.1753H136.439L131.737 20.3744C131.711 20.4042 131.672 20.4221 131.63 20.4221H127.28C127.152 20.4251 127.087 20.2731 127.17 20.1808Z" fill="#1C273B"/>
<path d="M148.047 2.98542V0.145994C148.047 0.0655481 148.113 0 148.193 0H151.857C151.937 0 152.003 0.0655481 152.003 0.145994V2.98542C152.003 3.06586 151.937 3.13141 151.857 3.13141H148.193C148.113 3.13141 148.047 3.06586 148.047 2.98542Z" fill="#1C273B"/>
<path d="M148.047 20.2782V5.70263C148.047 5.62219 148.113 5.55664 148.193 5.55664H151.857C151.937 5.55664 152.003 5.62219 152.003 5.70263V20.2782C152.003 20.3586 151.937 20.4241 151.857 20.4241H148.193C148.113 20.4241 148.047 20.3586 148.047 20.2782Z" fill="#1C273B"/>
<path d="M7.18667 6.55233L10.8949 6.85028C11.3573 6.88603 11.8167 6.77579 12.2135 6.53446L15.6382 4.4399C17.0642 3.56691 18.7677 3.25705 20.4085 3.57287L21.4675 3.77548V3.00678C21.4675 1.74944 20.4473 0.730469 19.1883 0.730469H2.27921C1.02027 0.733448 0 1.74944 0 3.00678V14.8144L6.50947 16.0657C6.5214 16.0866 6.53334 16.1045 6.54527 16.1253C7.09717 16.9387 7.93248 17.4899 8.89906 17.6747C9.13474 17.7193 9.36743 17.7432 9.60311 17.7432C10.331 17.7432 11.044 17.5257 11.6616 17.1086C11.6795 17.0966 11.6974 17.0817 11.7182 17.0668L15.0058 17.6985C15.328 17.7611 15.5398 18.0739 15.4801 18.3957L15.2892 19.3849C15.2266 19.7066 14.9133 19.9182 14.5911 19.8586L0 17.0549V19.8944C0 21.1517 1.02027 22.1707 2.27921 22.1707H19.1883C20.4473 22.1707 21.4675 21.1517 21.4675 19.8944V16.2594C18.7557 15.741 15.8769 15.1928 13.2218 14.6833C13.5619 12.7168 12.2612 10.8279 10.2922 10.4495C8.32031 10.0711 6.41102 11.3463 5.99635 13.3008C5.27738 13.1638 4.66582 13.0446 4.19744 12.9552C3.60378 12.842 3.21595 12.2669 3.3323 11.674L3.66941 9.92806L4.49875 10.086C5.29528 10.2379 6.06496 9.7195 6.22009 8.921L6.23501 8.83758C6.26484 8.67669 6.16043 8.51878 5.99933 8.48898L4.18849 8.14038C4.7762 7.10055 5.93072 6.45103 7.18667 6.55233ZM8.69918 12.7437C8.96767 12.5619 9.27495 12.4695 9.59118 12.4695C9.69261 12.4695 9.79404 12.4785 9.89547 12.4993C10.7338 12.6602 11.2916 13.4557 11.1693 14.293C11.1663 14.3168 11.1634 14.3406 11.1604 14.3645C11.0798 14.7816 10.8412 15.1421 10.4891 15.3835C10.1371 15.6218 9.71349 15.7082 9.29285 15.6278C8.87519 15.5473 8.51422 15.309 8.27258 14.9574C8.03391 14.6058 7.9474 14.1827 8.02795 13.7626C8.03093 13.7388 8.04286 13.7179 8.04883 13.6971C8.14131 13.3038 8.36506 12.9671 8.69918 12.7437Z" fill="#7900EB"/>
<path d="M6.21866 8.9232L6.23357 8.83977C6.2634 8.67888 6.15899 8.52097 5.99789 8.49117L4.18706 8.14258C4.01999 8.43457 3.89768 8.75337 3.82906 9.09898L3.66797 9.92429L4.49731 10.0822C5.29385 10.2401 6.06353 9.71871 6.21866 8.9232Z" fill="#7900EB"/>
<path d="M21.4642 5.93328L20.0859 5.66811C18.9672 5.45359 17.8067 5.66215 16.8342 6.25804L14.6146 7.61667C14.4923 7.69116 14.5251 7.87589 14.6653 7.9027L21.4642 9.21068V5.93328Z" fill="#7900EB"/>
</g>
<defs>
<clipPath id="clip0_1033_11875">
<rect width="152" height="22.1702" fill="white"/>
</clipPath>
</defs>
</svg>
